<?xml-stylesheet type="text/css" href="/static/css/main.index.css" ?>
<svg 
	height='40px' 
	width='40px'  
	fill="#349AFF" 
	xmlns="http://www.w3.org/2000/svg" 
	xmlns:xlink="http://www.w3.org/1999/xlink" 
	version="1.1" x="0px" y="0px" 
	viewBox="0 0 100 100" 
	enable-background="new 0 0 100 100" 
	xml:space="preserve">
	<g>
		<g>
			<path class="svg-cog-path" d="M73.056,17.22l-6.444,4.603c-2.675-1.573-5.5-2.745-8.45-3.493l-1.33-7.821c-0.251-1.449-1.501-2.498-2.951-2.497    l-3.899,0.003l-3.899,0.003c-1.449,0.001-2.698,1.052-2.947,2.501l-1.319,7.823c-2.998,0.752-5.896,1.954-8.619,3.63l-6.401-4.544    c-1.2-0.849-2.825-0.723-3.873,0.328l-2.772,2.776l-2.772,2.776c-1.024,1.025-1.173,2.675-0.322,3.874l4.628,6.519    c-1.572,2.675-2.695,5.55-3.443,8.45l-7.771,1.23c-1.449,0.251-2.498,1.501-2.497,2.951l0.003,3.899l0.003,3.899    c0.001,1.449,1.052,2.698,2.501,2.947l7.873,1.319c0.777,2.923,1.953,5.747,3.555,8.394l-4.544,6.401    c-0.849,1.2-0.723,2.825,0.328,3.873l2.776,2.772l2.776,2.772c1.025,1.024,2.675,1.173,3.874,0.322l6.519-4.628    c2.675,1.573,5.55,2.695,8.45,3.443l1.305,7.746c0.251,1.449,1.501,2.498,2.951,2.497l3.899-0.003l3.899-0.003    c1.449-0.001,2.698-1.052,2.947-2.501l1.319-7.873c2.848-0.752,5.647-1.903,8.22-3.43l6.451,4.594    c1.2,0.849,2.824,0.723,3.873-0.328l2.772-2.776l2.772-2.776c1.024-1.025,1.173-2.675,0.322-3.874l-4.603-6.444    c1.573-2.675,2.745-5.5,3.493-8.449l7.821-1.33c1.449-0.251,2.498-1.501,2.497-2.951l-0.003-3.899l-0.003-3.899    c-0.001-1.45-1.052-2.698-2.501-2.947l-7.823-1.319c-0.752-2.948-1.928-5.772-3.505-8.445l4.594-6.451    c0.849-1.2,0.723-2.825-0.328-3.873l-2.776-2.772l-2.776-2.772C75.854,16.518,74.23,16.395,73.056,17.22z M38.083,61.972    c-6.721-6.711-6.728-17.599-0.017-24.32c6.711-6.721,17.599-6.728,24.32-0.018c6.721,6.711,6.728,17.599,0.017,24.32    C55.691,68.675,44.803,68.683,38.083,61.972z"></path></g></g></svg>