<svg height='100px' width='100px'  fill="#848484" xmlns="http://www.w3.org/2000/svg" data-name="Layer 1" viewBox="0 0 30 30" x="0px" y="0px"><title>private-hide-secret-blind</title><path d="M28.809,14.413a26.5,26.5,0,0,0-6.048-5.759l-3.594,3.594a4.992,4.992,0,0,1-6.92,6.919L9.018,22.4A12.944,12.944,0,0,0,15,24c7.6,0,13.559-8.068,13.809-8.412A1,1,0,0,0,28.809,14.413Z"></path><path d="M10,15a4.992,4.992,0,0,1,7.753-4.167L20.982,7.6A12.944,12.944,0,0,0,15,6C7.4,6,1.441,14.069,1.191,14.413a1,1,0,0,0,0,1.175,26.5,26.5,0,0,0,6.048,5.759l3.594-3.594A4.964,4.964,0,0,1,10,15Z"></path><path d="M3.293,25.293a1,1,0,0,0,1.414,1.415L9.018,22.4a18.948,18.948,0,0,1-1.779-1.05Z"></path><path d="M26.707,4.708a1,1,0,0,0-1.414-1.415L20.982,7.6a18.948,18.948,0,0,1,1.779,1.05Z"></path><path d="M17.753,10.833l-6.92,6.92a5.024,5.024,0,0,0,1.414,1.414l6.92-6.919A5.041,5.041,0,0,0,17.753,10.833Z"></path></svg>